# This file uses centimeters as units for non-parametric coordinates.

mtllib balconyfloor_uv.mtl
g default
v -3.240117 6.356464 4.134500
v 1.830984 6.356464 4.134500
v -3.240117 7.708148 4.134500
v 1.830984 6.362292 4.134500
v -3.240117 7.708148 -10.022500
v 1.830984 6.362292 -10.022500
v -3.240117 6.356464 -10.022500
v 1.830984 6.356464 -10.022500
v 0.084984 6.356464 4.134500
v 0.084984 6.356464 -10.022500
v 0.199932 7.646407 -10.022500
v 0.084984 7.598875 -10.022500
v -0.061309 7.735641 -10.022500
v 0.084984 7.598875 4.134500
v 0.199932 7.646407 4.134500
v -0.061309 7.735641 4.134500
vt 0.625000 0.000000
vt 0.375000 0.250000
vt 0.375000 1.000000
vt 0.625000 1.000000
vt 0.875000 0.000000
vt 0.875000 0.250000
vt 0.125000 0.000000
vt 0.125000 0.250000
vt 0.538924 1.000000
vt 0.538924 0.750000
vt 0.625000 0.750000
vt 0.375000 0.750000
vt 0.625000 0.250000
vt 0.375000 0.000000
vt 0.538924 0.000000
vt 0.538924 0.225002
vt 0.625000 0.500000
vt 0.375000 0.500000
vt 0.544591 0.500000
vt 0.531712 0.250000
vt 0.538924 0.524997
vt 0.531712 0.500000
vt 0.544591 0.250000
vn 0.587370 0.809318 0.000000
vn 0.587370 0.809318 0.000000
vn 0.618588 0.785715 0.000000
vn 0.618588 0.785716 0.000000
vn 0.000000 0.000000 -1.000000
vn 0.000000 0.000000 -1.000000
vn 0.000000 0.000000 -1.000000
vn -0.000001 0.000000 -1.000000
vn -0.000000 0.000000 -1.000000
vn 0.000000 -1.000000 0.000000
vn 0.000000 -1.000000 0.000000
vn 0.000000 -1.000000 0.000000
vn 0.000000 -1.000000 0.000000
vn 1.000000 0.000000 0.000000
vn 1.000000 0.000000 0.000000
vn 1.000000 0.000000 0.000000
vn 1.000000 0.000000 0.000000
vn -1.000000 0.000000 0.000000
vn -1.000000 0.000000 0.000000
vn -1.000000 0.000000 0.000000
vn -1.000000 0.000000 0.000000
vn 0.000000 -1.000000 0.000000
vn 0.000000 -1.000000 0.000000
vn 0.000000 0.000000 -1.000000
vn 0.000000 0.000000 -1.000000
vn 0.000000 0.000000 -1.000000
vn -0.008649 0.999963 0.000000
vn 0.017945 0.999839 0.000000
vn -0.008649 0.999963 0.000000
vn 0.017945 0.999839 0.000000
vn 0.000000 0.000000 1.000000
vn -0.000000 0.000000 1.000000
vn -0.000000 0.000000 1.000000
vn -0.000000 0.000000 1.000000
vn 0.000000 0.000000 1.000000
vn 0.000000 0.000000 1.000000
vn 0.000000 0.000000 1.000000
vn 0.000000 0.000000 1.000000
s 1
g BalconyFloor MainBuilding
usemtl aiStandardSurface12SG
f 11/19/1 15/23/2 6/17/3
f 6/17/3 15/23/2 4/13/4
s 2
f 8/11/5 10/10/6 6/17/7
f 12/21/8 11/19/9 10/10/6
f 10/10/6 11/19/9 6/17/7
s 4
f 9/9/10 10/10/11 2/4/12
f 2/4/12 10/10/11 8/11/13
s 5
f 2/1/14 8/5/15 4/13/16
f 4/13/16 8/5/15 6/6/17
s 6
f 7/7/18 1/14/19 5/8/20
f 5/8/20 1/14/19 3/2/21
s 4
f 7/12/22 10/10/11 1/3/23
f 1/3/23 10/10/11 9/9/10
s 2
f 10/10/6 7/12/24 12/21/8
f 12/21/8 7/12/24 13/22/25
f 5/18/26 13/22/25 7/12/24
s 1
f 3/2/27 16/20/28 5/18/29
f 5/18/29 16/20/28 13/22/30
s 8
f 1/14/31 9/15/32 3/2/33
f 3/2/33 9/15/32 16/20/34
f 9/15/32 14/16/35 16/20/34
f 2/1/36 4/13/37 9/15/32
f 14/16/35 9/15/32 15/23/38
f 15/23/38 9/15/32 4/13/37
s 1
f 11/19/1 13/22/30 15/23/2
f 15/23/2 13/22/30 16/20/28
s 2
f 11/19/9 12/21/8 13/22/25
s 8
f 14/16/35 15/23/38 16/20/34
g default
v -3.240117 6.356464 4.134500
v 1.830984 6.356464 4.134500
v -3.240117 7.708148 4.134500
v 1.830984 6.362292 4.134500
v -3.240117 7.708148 -10.022500
v 1.830984 6.362292 -10.022500
v -3.240117 6.356464 -10.022500
v 1.830984 6.356464 -10.022500
v 0.084984 6.356464 4.134500
v 0.084984 6.356464 -10.022500
v 0.199932 7.646407 -10.022500
v 0.084984 7.598875 -10.022500
v -0.061309 7.735641 -10.022500
v 0.084984 7.598875 4.134500
v 0.199932 7.646407 4.134500
v -0.061309 7.735641 4.134500
vt 0.625000 0.000000
vt 0.375000 0.250000
vt 0.375000 1.000000
vt 0.625000 1.000000
vt 0.875000 0.000000
vt 0.875000 0.250000
vt 0.125000 0.000000
vt 0.125000 0.250000
vt 0.538924 1.000000
vt 0.538924 0.750000
vt 0.625000 0.750000
vt 0.375000 0.750000
vt 0.625000 0.250000
vt 0.375000 0.000000
vt 0.538924 0.000000
vt 0.538924 0.225002
vt 0.625000 0.500000
vt 0.375000 0.500000
vt 0.544591 0.500000
vt 0.531712 0.250000
vt 0.538924 0.524997
vt 0.531712 0.500000
vt 0.544591 0.250000
vn 0.587370 0.809318 0.000000
vn 0.587370 0.809318 0.000000
vn 0.618588 0.785715 0.000000
vn 0.618588 0.785716 0.000000
vn 0.000000 0.000000 -1.000000
vn 0.000000 0.000000 -1.000000
vn 0.000000 0.000000 -1.000000
vn -0.000001 0.000000 -1.000000
vn -0.000000 0.000000 -1.000000
vn 0.000000 -1.000000 0.000000
vn 0.000000 -1.000000 0.000000
vn 0.000000 -1.000000 0.000000
vn 0.000000 -1.000000 0.000000
vn 1.000000 0.000000 0.000000
vn 1.000000 0.000000 0.000000
vn 1.000000 0.000000 0.000000
vn 1.000000 0.000000 0.000000
vn -1.000000 0.000000 0.000000
vn -1.000000 0.000000 0.000000
vn -1.000000 0.000000 0.000000
vn -1.000000 0.000000 0.000000
vn 0.000000 -1.000000 0.000000
vn 0.000000 -1.000000 0.000000
vn 0.000000 0.000000 -1.000000
vn 0.000000 0.000000 -1.000000
vn 0.000000 0.000000 -1.000000
vn -0.008649 0.999963 0.000000
vn 0.017945 0.999839 0.000000
vn -0.008649 0.999963 0.000000
vn 0.017945 0.999839 0.000000
vn 0.000000 0.000000 1.000000
vn -0.000000 0.000000 1.000000
vn -0.000000 0.000000 1.000000
vn -0.000000 0.000000 1.000000
vn 0.000000 0.000000 1.000000
vn 0.000000 0.000000 1.000000
vn 0.000000 0.000000 1.000000
vn 0.000000 0.000000 1.000000
s 1
g BalconyFloor MainBuilding
f 27/42/39 31/46/40 22/40/41
f 22/40/41 31/46/40 20/36/42
s 2
f 24/34/43 26/33/44 22/40/45
f 28/44/46 27/42/47 26/33/44
f 26/33/44 27/42/47 22/40/45
s 4
f 25/32/48 26/33/49 18/27/50
f 18/27/50 26/33/49 24/34/51
s 5
f 18/24/52 24/28/53 20/36/54
f 20/36/54 24/28/53 22/29/55
s 6
f 23/30/56 17/37/57 21/31/58
f 21/31/58 17/37/57 19/25/59
s 4
f 23/35/60 26/33/49 17/26/61
f 17/26/61 26/33/49 25/32/48
s 2
f 26/33/44 23/35/62 28/44/46
f 28/44/46 23/35/62 29/45/63
f 21/41/64 29/45/63 23/35/62
s 1
f 19/25/65 32/43/66 21/41/67
f 21/41/67 32/43/66 29/45/68
s 8
f 17/37/69 25/38/70 19/25/71
f 19/25/71 25/38/70 32/43/72
f 25/38/70 30/39/73 32/43/72
f 18/24/74 20/36/75 25/38/70
f 30/39/73 25/38/70 31/46/76
f 31/46/76 25/38/70 20/36/75
s 1
f 27/42/39 29/45/68 31/46/40
f 31/46/40 29/45/68 32/43/66
s 2
f 27/42/47 28/44/46 29/45/63
s 8
f 30/39/73 31/46/76 32/43/72
