# This file uses centimeters as units for non-parametric coordinates.

mtllib electricbox_uv.mtl
g default
v -5.150212 5.802757 4.362918
v -4.616933 5.802757 4.362918
v -5.150212 5.902757 4.362918
v -4.616933 5.902757 4.362918
v -5.150212 5.902757 4.262918
v -4.616933 5.902757 4.262918
v -5.150212 5.802757 4.262918
v -4.616933 5.802757 4.262918
vt 0.375000 0.000000
vt 0.625000 0.000000
vt 0.375000 0.250000
vt 0.625000 0.250000
vt 0.375000 0.500000
vt 0.625000 0.500000
vt 0.375000 0.750000
vt 0.625000 0.750000
vt 0.375000 1.000000
vt 0.625000 1.000000
vt 0.875000 0.000000
vt 0.875000 0.250000
vt 0.125000 0.000000
vt 0.125000 0.250000
vn 0.000000 0.000000 1.000000
vn 0.000000 0.000000 1.000000
vn 0.000000 0.000000 1.000000
vn 0.000000 0.000000 1.000000
vn 0.000000 1.000000 0.000000
vn 0.000000 1.000000 0.000000
vn 0.000000 1.000000 0.000000
vn 0.000000 1.000000 0.000000
vn 0.000000 0.000000 -1.000000
vn 0.000000 0.000000 -1.000000
vn 0.000000 0.000000 -1.000000
vn 0.000000 0.000000 -1.000000
vn 0.000000 -1.000000 0.000000
vn 0.000000 -1.000000 0.000000
vn 0.000000 -1.000000 0.000000
vn 0.000000 -1.000000 0.000000
vn 1.000000 0.000000 0.000000
vn 1.000000 0.000000 0.000000
vn 1.000000 0.000000 0.000000
vn 1.000000 0.000000 0.000000
vn -1.000000 0.000000 0.000000
vn -1.000000 0.000000 0.000000
vn -1.000000 0.000000 0.000000
vn -1.000000 0.000000 0.000000
s 1
g WireHolder ElectricBox MainBuilding
usemtl aiStandardSurface17SG
f 1/1/1 2/2/2 3/3/3
f 3/3/3 2/2/2 4/4/4
s 2
f 3/3/5 4/4/6 5/5/7
f 5/5/7 4/4/6 6/6/8
s 3
f 5/5/9 6/6/10 7/7/11
f 7/7/11 6/6/10 8/8/12
s 4
f 7/7/13 8/8/14 1/9/15
f 1/9/15 8/8/14 2/10/16
s 5
f 2/2/17 8/11/18 4/4/19
f 4/4/19 8/11/18 6/12/20
s 6
f 7/13/21 1/1/22 5/14/23
f 5/14/23 1/1/22 3/3/24
g default
v -5.150212 5.802757 4.362918
v -4.616933 5.802757 4.362918
v -5.150212 5.902757 4.362918
v -4.616933 5.902757 4.362918
v -5.150212 5.902757 4.262918
v -4.616933 5.902757 4.262918
v -5.150212 5.802757 4.262918
v -4.616933 5.802757 4.262918
vt 0.375000 0.000000
vt 0.625000 0.000000
vt 0.375000 0.250000
vt 0.625000 0.250000
vt 0.375000 0.500000
vt 0.625000 0.500000
vt 0.375000 0.750000
vt 0.625000 0.750000
vt 0.375000 1.000000
vt 0.625000 1.000000
vt 0.875000 0.000000
vt 0.875000 0.250000
vt 0.125000 0.000000
vt 0.125000 0.250000
vn 0.000000 0.000000 1.000000
vn 0.000000 0.000000 1.000000
vn 0.000000 0.000000 1.000000
vn 0.000000 0.000000 1.000000
vn 0.000000 1.000000 0.000000
vn 0.000000 1.000000 0.000000
vn 0.000000 1.000000 0.000000
vn 0.000000 1.000000 0.000000
vn 0.000000 0.000000 -1.000000
vn 0.000000 0.000000 -1.000000
vn 0.000000 0.000000 -1.000000
vn 0.000000 0.000000 -1.000000
vn 0.000000 -1.000000 0.000000
vn 0.000000 -1.000000 0.000000
vn 0.000000 -1.000000 0.000000
vn 0.000000 -1.000000 0.000000
vn 1.000000 0.000000 0.000000
vn 1.000000 0.000000 0.000000
vn 1.000000 0.000000 0.000000
vn 1.000000 0.000000 0.000000
vn -1.000000 0.000000 0.000000
vn -1.000000 0.000000 0.000000
vn -1.000000 0.000000 0.000000
vn -1.000000 0.000000 0.000000
s 1
g WireHolder ElectricBox MainBuilding
f 9/15/25 10/16/26 11/17/27
f 11/17/27 10/16/26 12/18/28
s 2
f 11/17/29 12/18/30 13/19/31
f 13/19/31 12/18/30 14/20/32
s 3
f 13/19/33 14/20/34 15/21/35
f 15/21/35 14/20/34 16/22/36
s 4
f 15/21/37 16/22/38 9/23/39
f 9/23/39 16/22/38 10/24/40
s 5
f 10/16/41 16/25/42 12/18/43
f 12/18/43 16/25/42 14/26/44
s 6
f 15/27/45 9/15/46 13/28/47
f 13/28/47 9/15/46 11/17/48
g default
v -5.207480 5.516055 4.034649
v -4.455199 5.516055 4.034649
v -5.207480 4.387632 4.034649
v -4.455199 4.387632 4.034649
v -5.132260 4.462852 4.636475
v -5.207480 4.387632 4.561254
v -4.530420 4.462852 4.636475
v -4.455199 4.387632 4.561254
v -5.132260 5.440834 4.636475
v -5.207480 5.516055 4.561254
v -4.530420 5.440834 4.636475
v -4.455199 5.516055 4.561254
v -4.461700 5.506303 4.474532
v -4.460707 5.507793 4.497589
v -5.201973 5.507793 4.497589
v -5.200980 5.506303 4.474532
v -5.201973 4.395894 4.497589
v -5.200980 4.397384 4.474532
v -4.460707 4.395894 4.497589
v -4.461700 4.397384 4.474532
v -5.201159 5.506573 4.441484
v -5.200980 5.506303 4.464575
v -5.200980 4.397384 4.464575
v -5.201159 4.397115 4.441484
v -4.461700 4.397384 4.464576
v -4.461520 4.397115 4.441484
v -4.461700 5.506303 4.464575
v -4.461520 5.506573 4.441484
vt 0.625000 0.500000
vt 0.375000 0.750000
vt 0.343753 0.000000
vt 0.399998 0.016665
vt 0.375000 0.281247
vt 0.399998 0.233335
vt 0.656247 0.250000
vt 0.600003 0.016665
vt 0.600003 0.233335
vt 0.692235 0.250000
vt 0.682591 0.000000
vt 0.625000 0.307591
vt 0.375000 0.317235
vt 0.317409 0.250000
vt 0.307765 0.000000
vt 0.375000 0.942409
vt 0.625000 0.932765
vt 0.375000 0.331117
vt 0.625000 0.321444
vt 0.303556 0.250000
vt 0.293883 0.000000
vt 0.375000 0.928556
vt 0.625000 0.918883
vt 0.696444 0.000000
vt 0.706117 0.250000
vt 0.625000 0.281247
vt 0.375000 0.307591
vt 0.625000 0.942409
vt 0.625000 0.968753
vt 0.375000 0.968753
vt 0.656247 0.000000
vt 0.682591 0.250000
vt 0.317409 0.000000
vt 0.343753 0.250000
vt 0.625000 0.317235
vt 0.375000 0.321444
vt 0.303556 0.000000
vt 0.307765 0.250000
vt 0.625000 0.928556
vt 0.375000 0.932765
vt 0.692235 0.000000
vt 0.696444 0.250000
vt 0.125000 0.000000
vt 0.293883 0.250000
vt 0.125000 0.250000
vt 0.625000 0.750000
vt 0.375000 0.918883
vt 0.706117 0.000000
vt 0.875000 0.000000
vt 0.875000 0.250000
vt 0.625000 0.331117
vt 0.375000 0.500000
vn 0.000000 0.000000 -1.000000
vn 0.000000 0.000000 -1.000000
vn 0.000000 0.000000 -1.000000
vn 0.000000 0.000000 -1.000000
vn 0.000000 -0.707112 0.707102
vn 0.000000 -0.707111 0.707103
vn 0.000000 -0.707105 0.707109
vn 0.000000 -0.707105 0.707109
vn -0.707108 0.000000 0.707106
vn -0.707108 0.000000 0.707106
vn -0.707109 0.000000 0.707105
vn -0.707109 0.000000 0.707105
vn 0.707108 0.000000 0.707106
vn 0.707108 0.000000 0.707106
vn 0.707109 0.000000 0.707104
vn 0.707109 0.000000 0.707104
vn 0.000000 0.707108 0.707106
vn 0.000000 0.707108 0.707106
vn 0.000000 0.707109 0.707105
vn 0.000000 0.707109 0.707105
vn 0.000000 0.000000 1.000000
vn 0.000000 0.000000 1.000000
vn 0.000000 0.000000 1.000000
vn 0.000000 0.000000 1.000000
vn 0.999537 0.000000 -0.030435
vn 0.997126 0.000000 -0.075756
vn 0.999536 -0.000000 -0.030457
vn 0.997119 0.000000 -0.075847
vn 0.000000 0.993627 -0.112721
vn 0.000000 0.998965 -0.045481
vn 0.000000 0.993603 -0.112930
vn 0.000000 0.998967 -0.045442
vn -0.997128 0.000000 -0.075734
vn -0.999536 0.000000 -0.030457
vn -0.997118 0.000000 -0.075869
vn -0.999537 0.000000 -0.030435
vn 0.000000 -0.993625 -0.112733
vn 0.000000 -0.998964 -0.045500
vn 0.000000 -0.993603 -0.112932
vn 0.000000 -0.998967 -0.045438
vn 0.000000 0.999743 0.022682
vn 0.000000 0.999967 0.008129
vn 0.000000 0.999743 0.022693
vn 0.000000 0.999967 0.008173
vn -0.999985 0.000000 0.005452
vn -0.999886 0.000000 0.015128
vn -0.999985 0.000000 0.005453
vn -0.999886 0.000000 0.015133
vn -0.000000 -0.999967 0.008151
vn -0.000000 -0.999743 0.022693
vn 0.000000 -0.999967 0.008158
vn 0.000000 -0.999743 0.022687
vn 0.999985 0.000000 0.005452
vn 0.999885 0.000000 0.015133
vn 0.999985 0.000000 0.005453
vn 0.999886 0.000000 0.015127
vn 0.000000 0.991684 -0.128694
vn 0.000000 0.991686 -0.128678
vn 0.000000 -0.991685 -0.128686
vn 0.000000 -0.991684 -0.128699
vn 0.996279 0.000000 -0.086186
vn 0.996279 0.000000 -0.086185
vn -0.996279 0.000000 -0.086185
vn -0.996279 0.000000 -0.086186
vn -0.999879 0.000000 0.015535
vn -0.999879 0.000000 0.015535
vn 0.000000 -0.999729 0.023302
vn 0.000000 -0.999729 0.023303
vn 0.999879 0.000000 0.015535
vn 0.999879 0.000000 0.015535
vn 0.000000 0.999729 0.023301
vn 0.000000 0.999729 0.023302
s 1
g ElectricBox MainBuilding WireBox
usemtl aiStandardSurface17SG
f 17/80/49 18/29/50 19/30/51
f 19/30/51 18/29/50 20/74/52
s 2
f 21/32/53 22/31/54 23/36/55
f 23/36/55 22/31/54 24/59/56
s 3
f 22/31/57 21/32/58 26/33/59
f 26/33/59 21/32/58 25/34/60
s 4
f 23/36/61 24/59/62 27/37/63
f 27/37/63 24/59/62 28/35/64
s 5
f 26/33/65 25/34/66 28/35/67
f 28/35/67 25/34/66 27/37/68
s 6
f 21/32/69 23/36/70 25/34/71
f 25/34/71 23/36/70 27/37/72
s 7
f 29/38/73 30/60/74 36/69/75
f 36/69/75 30/60/74 35/39/76
s 8
f 30/40/77 29/63/78 31/55/79
f 31/55/79 29/63/78 32/41/80
s 9
f 31/42/81 32/66/82 33/61/83
f 33/61/83 32/66/82 34/43/84
s 10
f 33/44/85 34/68/86 35/56/87
f 35/56/87 34/68/86 36/45/88
s 8
f 37/46/89 38/64/90 44/79/91
f 44/79/91 38/64/90 43/47/92
s 9
f 38/48/93 37/72/94 39/65/95
f 39/65/95 37/72/94 40/49/96
s 10
f 39/50/97 40/75/98 41/67/99
f 41/67/99 40/75/98 42/51/100
s 7
f 41/52/101 42/76/102 43/70/103
f 43/70/103 42/76/102 44/53/104
s 8
f 26/33/105 28/54/106 31/55/79
f 31/55/79 28/54/106 30/40/77
s 10
f 33/44/85 35/56/87 22/58/107
f 22/58/107 35/56/87 24/57/108
s 7
f 24/59/109 35/39/76 28/35/110
f 28/35/110 35/39/76 30/60/74
s 9
f 31/42/81 33/61/83 26/62/111
f 26/62/111 33/61/83 22/31/112
s 8
f 32/41/80 29/63/78 38/64/90
f 38/64/90 29/63/78 43/47/92
s 9
f 38/48/93 39/65/95 32/66/82
f 32/66/82 39/65/95 34/43/84
s 10
f 39/50/97 41/67/99 34/68/86
f 34/68/86 41/67/99 36/45/88
s 7
f 29/38/73 36/69/75 43/70/103
f 43/70/103 36/69/75 41/52/101
s 9
f 19/71/113 40/49/96 17/73/114
f 17/73/114 40/49/96 37/72/94
s 10
f 19/30/115 20/74/116 40/75/98
f 40/75/98 20/74/116 42/51/100
s 7
f 44/53/104 42/76/102 18/78/117
f 18/78/117 42/76/102 20/77/118
s 8
f 37/46/89 44/79/91 17/80/119
f 17/80/119 44/79/91 18/29/120
