# This file uses centimeters as units for non-parametric coordinates.

mtllib externalwall_uv.mtl
g default
v -9.957392 0.938626 6.987926
v -9.957392 3.938626 5.987926
v -9.957392 0.938626 5.987926
v -3.313117 0.938626 5.987926
v -4.721138 0.938626 6.987926
v -4.721138 0.938626 5.987926
v -4.721138 3.938626 5.987926
v -4.721138 3.938626 6.987926
v -9.957392 3.581434 6.987926
v -4.721138 3.581434 6.987926
v -4.721138 3.581434 5.987926
v -9.957392 3.581434 5.987926
v -3.979677 3.581434 5.987926
v -3.979677 0.938626 5.987926
v -3.330223 3.783282 6.821149
v -3.979677 3.938626 6.857700
v -4.063979 3.938626 6.987926
v -3.430443 0.938626 6.987926
v -3.313117 0.938626 6.870415
v -3.293030 3.119062 6.744419
v -3.407819 3.142797 6.864586
v -3.440257 3.671537 6.928078
v -3.979677 0.938626 6.904884
v -3.896732 0.938626 6.987926
v -4.062622 0.938626 6.987926
v -4.019283 3.295900 6.880738
v -3.852443 3.243523 6.867771
v -3.975401 3.868612 6.912794
v -4.062645 3.936680 6.987581
v -3.887059 3.782552 6.958312
v -8.125889 0.938626 6.987926
v -8.125889 0.938626 5.987926
v -8.125889 3.581434 5.987926
v -8.125889 3.938626 5.987926
v -8.125889 3.581434 6.987926
v -9.849136 3.781933 6.926449
v -9.813204 3.893085 6.781198
v -8.099939 3.663217 6.933376
v -7.982051 3.750293 6.881828
v -8.079673 3.766179 6.781322
v -3.460289 3.720587 6.052091
v -3.330714 3.842821 6.269735
v -3.278770 3.464940 6.218605
v -3.276278 3.446077 6.056581
v -3.451206 3.572340 6.041903
v -3.979677 3.938626 6.163289
v -3.979677 3.764941 5.987926
v -4.102958 3.938626 5.987926
vt 0.375000 0.000000
vt 0.375000 0.750000
vt 0.625000 0.750000
vt 0.375000 1.000000
vt 0.125000 0.000000
vt 0.572021 0.000000
vt 0.572021 1.000000
vt 0.572021 0.750000
vt 0.375000 0.220234
vt 0.572021 0.529766
vt 0.125000 0.220234
vt 0.375000 0.529766
vt 0.599920 0.750000
vt 0.596799 1.000000
vt 0.625000 0.970622
vt 0.620585 1.000000
vt 0.599920 0.282556
vt 0.596748 0.250000
vt 0.654378 -0.000000
vt 0.620516 0.244412
vt 0.603041 0.000000
vt 0.603191 0.244105
vt 0.596793 0.249914
vt 0.572021 0.220234
vt 0.654608 0.250000
vt 0.596799 0.000000
vt 0.597037 0.220234
vt 0.620438 0.220234
vt 0.620585 0.000000
vt 0.603244 0.220234
vt 0.599920 0.979240
vt 0.603041 1.000000
vt 0.599920 0.262601
vt 0.443913 0.000000
vt 0.443913 1.000000
vt 0.443913 0.750000
vt 0.443913 0.529766
vt 0.343789 0.250000
vt 0.125000 0.250000
vt 0.572021 0.250000
vt 0.443913 0.500000
vt 0.572021 0.500000
vt 0.375000 0.281211
vt 0.375000 0.500000
vt 0.443913 0.220234
vt 0.375000 0.239792
vt 0.443913 0.235118
vt 0.447426 0.250000
vt 0.443913 0.277364
vt 0.875000 0.000000
vt 0.875000 0.209918
vt 0.595281 0.500000
vt 0.625000 0.450027
vt 0.625000 0.513319
vt 0.618714 0.529766
vt 0.618805 0.516269
vt 0.599920 0.514474
vt 0.599920 0.456159
vt 0.625000 0.279608
vt 0.599920 0.529766
vt 0.659060 0.215200
vt 0.824948 0.219067
vt 0.825027 0.250000
vt 0.625000 0.540082
vn -0.041751 0.998838 0.024095
vn -0.050260 0.998736 0.000000
vn 0.000000 1.000000 0.000000
vn 0.065515 0.997852 0.000001
vn 0.072504 0.997232 0.016466
vn 0.000001 1.000000 0.000000
vn 0.000000 -1.000000 0.000000
vn 0.000000 -1.000000 0.000000
vn 0.000000 -1.000000 0.000000
vn 0.000000 -1.000000 0.000000
vn 0.000000 -1.000000 0.000000
vn -0.999486 0.032049 0.000000
vn -0.896799 0.442348 0.008943
vn -0.999877 0.007508 0.013748
vn -0.965464 0.248649 0.077801
vn -0.983880 0.000000 0.178833
vn 0.000000 -1.000000 0.000000
vn 0.000000 -1.000000 0.000000
vn 0.000000 0.000000 -1.000000
vn 0.000000 0.000000 -1.000000
vn 0.000000 0.000000 -1.000000
vn 0.000000 0.000000 -1.000000
vn -0.035969 0.996251 0.078682
vn 0.018485 0.980375 0.196271
vn 0.024397 0.971706 0.234932
vn -0.000612 0.018011 0.999838
vn 0.000000 0.000000 1.000000
vn 0.019615 -0.003310 0.999802
vn 0.004972 0.005428 0.999973
vn 0.000000 0.000000 -1.000000
vn 0.005721 0.010692 -0.999927
vn 0.042634 0.000291 -0.999091
vn 0.000000 0.000000 -1.000000
vn -1.000000 0.000000 0.000000
vn -1.000000 0.000000 0.000000
vn 0.098104 0.004017 -0.995168
vn 0.060301 0.010414 -0.998126
vn 0.000000 0.027371 -0.999625
vn 0.757023 0.432072 0.490133
vn 0.738594 0.591669 0.323121
vn 0.757121 0.431916 0.490120
vn 0.719867 0.647275 0.250653
vn 0.183293 0.579434 0.794141
vn 0.196208 0.600523 0.775161
vn 0.184486 0.581393 0.792431
vn 0.203969 0.613063 0.763250
vn 0.203969 0.613065 0.763248
vn 0.000000 -1.000000 -0.000000
vn 0.000000 -1.000000 -0.000000
vn 0.000000 -1.000000 0.000000
vn 0.000000 -1.000000 0.000000
vn 0.707241 0.034289 0.706140
vn 0.724143 0.019616 0.689371
vn 0.708197 0.034123 0.705190
vn 0.724514 0.015140 0.689094
vn 0.717234 -0.040130 0.695676
vn 0.717066 -0.040231 0.695843
vn 0.001752 0.054431 0.998516
vn 0.035048 0.009731 0.999338
vn 0.000859 0.046635 0.998912
vn 0.119786 -0.013946 0.992702
vn 0.024085 -0.163598 0.986233
vn 0.076820 -0.158784 0.984320
vn 0.001718 -0.003159 0.999994
vn -0.000505 0.004816 0.999988
vn 0.999958 -0.009212 0.000000
vn 0.999947 -0.010008 0.002295
vn 0.999808 -0.006794 0.018392
vn 0.999738 -0.015157 0.017138
vn 0.999714 0.005761 0.023230
vn 0.011506 0.027944 0.999543
vn 0.000000 0.055870 0.998438
vn 0.006139 -0.145313 0.989367
vn 0.665859 0.738736 0.104407
vn 0.000000 -1.000000 0.000000
vn 0.000000 -1.000000 0.000000
vn 0.000000 0.000000 -1.000000
vn 0.000000 0.000000 -1.000000
vn 0.000000 0.000000 -1.000000
vn 0.024494 0.980988 0.192517
vn 0.000000 0.998356 0.057315
vn 0.000000 0.015390 0.999882
vn 0.000453 0.296704 0.954969
vn -0.038510 0.562912 0.825619
vn 0.000000 0.000000 1.000000
vn -0.059474 0.566908 0.821632
vn 0.050978 0.786999 0.614845
vn 0.045535 0.822100 0.567519
vn -0.371692 0.790951 0.486048
vn 0.034738 0.000000 -0.999396
vn 0.000001 0.000000 -1.000000
vn 0.794186 0.187386 -0.578061
vn 0.786332 0.171793 -0.593438
vn 0.785142 0.169494 -0.595671
vn 0.739837 0.091135 -0.666585
vn 0.210796 0.793371 -0.571076
vn 0.199777 0.778996 -0.594352
vn 0.167148 0.733914 -0.658355
vn 0.146026 0.702881 -0.696157
vn 0.186496 0.981381 0.045935
vn 0.236903 0.965942 0.104087
vn 0.107359 0.056977 -0.992586
vn 0.996333 0.071173 0.047478
vn 0.990839 0.134358 0.013626
vn 0.587823 0.804551 -0.084632
vn 0.587823 0.804551 -0.084632
vn 0.587823 0.804551 -0.084632
vn 0.707456 0.502147 -0.497347
vn 0.707456 0.502147 -0.497347
vn 0.707456 0.502147 -0.497347
s 1
g Wall OutsideAmbiance
usemtl aiStandardSurface16SG
f 7/42/1 8/40/2 48/52/3
f 48/52/3 8/40/2 46/58/4
f 46/58/4 8/40/2 16/17/5
f 8/40/2 17/18/6 16/17/5
s 2
f 5/7/7 6/8/8 25/14/9
f 25/14/9 6/8/8 23/31/10
f 6/8/8 14/13/11 23/31/10
s 3
f 9/9/12 36/46/13 12/11/14
f 36/46/13 37/38/15 12/11/14
f 12/11/14 37/38/15 2/39/16
s 2
f 31/35/17 32/36/18 5/7/7
f 5/7/7 32/36/18 6/8/8
s 5
f 33/37/19 34/41/20 11/10/21
f 11/10/21 34/41/20 7/42/22
s 1
f 8/40/2 7/42/1 39/48/23
f 34/41/24 40/49/25 7/42/1
f 40/49/25 39/48/23 7/42/1
s 7
f 35/45/26 31/34/27 10/24/28
f 10/24/28 31/34/27 5/6/29
s 5
f 6/8/30 11/10/21 14/13/31
f 14/13/31 11/10/21 13/60/32
f 32/36/33 33/37/19 6/8/30
f 6/8/30 33/37/19 11/10/21
s 3
f 3/5/34 1/1/35 12/11/14
f 12/11/14 1/1/35 9/9/12
s 5
f 13/60/32 45/55/36 14/13/31
f 45/55/36 44/64/37 14/13/31
f 14/13/31 44/64/37 4/3/38
s 9
f 17/18/39 29/23/40 16/17/41
f 16/17/41 29/23/40 28/33/42
s 10
f 15/59/43 16/17/44 22/20/45
f 16/17/44 28/33/46 22/20/45
f 22/20/45 28/33/46 30/22/47
s 2
f 14/13/11 4/3/48 23/31/10
f 23/31/10 4/3/48 24/32/49
f 4/3/48 19/15/50 24/32/49
f 24/32/49 19/15/50 18/16/51
s 11
f 19/19/52 20/61/53 18/29/54
f 18/29/54 20/61/53 21/28/55
f 21/28/55 20/61/53 22/20/56
f 22/20/56 20/61/53 15/25/57
s 7
f 24/21/58 27/30/59 25/26/60
f 25/26/60 27/30/59 26/27/61
f 27/30/59 30/22/62 26/27/61
f 26/27/61 30/22/62 29/23/63
f 26/27/61 29/23/63 10/24/28
f 29/23/63 17/18/64 10/24/28
f 8/40/65 10/24/28 17/18/64
f 25/26/60 26/27/61 5/6/29
f 5/6/29 26/27/61 10/24/28
s 13
f 19/19/66 4/50/67 20/61/68
f 44/51/69 43/62/70 4/50/67
f 20/61/68 4/50/67 43/62/70
s 7
f 27/30/59 24/21/58 21/28/71
f 21/28/71 24/21/58 18/29/72
f 21/28/71 22/20/73 27/30/59
f 27/30/59 22/20/73 30/22/62
s 2
f 23/31/10 24/32/49 25/14/9
s 9
f 28/33/42 29/23/40 30/22/74
s 2
f 3/2/75 32/36/18 1/4/76
f 1/4/76 32/36/18 31/35/17
s 5
f 12/12/77 33/37/19 3/2/78
f 3/2/78 33/37/19 32/36/33
f 2/44/79 34/41/20 12/12/77
f 12/12/77 34/41/20 33/37/19
s 1
f 40/49/25 34/41/24 37/43/80
f 37/43/80 34/41/24 2/44/81
s 7
f 9/9/82 35/45/26 36/46/83
f 36/46/83 35/45/26 38/47/84
f 1/1/85 31/34/27 9/9/82
f 9/9/82 31/34/27 35/45/26
f 10/24/28 8/40/65 35/45/26
f 35/45/26 8/40/65 38/47/84
f 39/48/86 38/47/84 8/40/65
s 1
f 36/46/87 38/47/88 37/43/80
f 37/43/80 38/47/88 40/49/25
f 38/47/88 39/48/89 40/49/25
s 5
f 13/60/32 11/10/21 47/57/90
f 47/57/90 11/10/21 48/52/91
f 48/52/91 11/10/21 7/42/22
s 14
f 42/53/92 43/54/93 41/56/94
f 41/56/94 43/54/93 45/55/95
s 15
f 42/53/96 41/56/97 46/58/98
f 46/58/98 41/56/97 47/57/99
s 1
f 46/58/4 16/17/5 42/53/100
f 42/53/100 16/17/5 15/59/101
s 5
f 45/55/36 13/60/32 41/56/102
f 41/56/102 13/60/32 47/57/90
s 13
f 20/61/68 43/62/70 15/25/103
f 15/25/103 43/62/70 42/63/104
s off
f 43/54/105 44/64/106 45/55/107
f 46/58/108 47/57/109 48/52/110
