# This file uses centimeters as units for non-parametric coordinates.

mtllib roofedge_uv.mtl
g default
v -3.375831 12.761047 3.716493
v -3.464134 12.817583 3.646277
v -3.463549 12.861208 3.762846
v -3.375831 12.771747 3.896581
v -3.458818 12.428196 3.364626
v -3.453303 12.530854 3.315190
v -3.375831 12.529873 3.469370
v -3.375831 12.529873 4.923930
v -3.458818 12.538162 5.069671
v -3.458818 12.428196 5.028674
v -3.375831 12.771747 4.496719
v -3.463940 12.861208 4.630158
v -3.463935 12.817682 4.746910
v -3.375831 12.761047 4.676807
v -9.922838 12.771747 3.896581
v -9.834728 12.861208 3.763142
v -9.834734 12.817682 3.646390
v -9.922838 12.761047 3.716493
v -9.922838 12.529873 3.469370
v -9.839849 12.538162 3.323629
v -9.839849 12.428196 3.364626
v -9.839849 12.428196 5.028674
v -9.845367 12.530854 5.078110
v -9.922838 12.529873 4.923930
v -9.922838 12.761047 4.676807
v -9.834534 12.817583 4.747023
v -9.835121 12.861208 4.630454
v -9.922838 12.771747 4.496719
v -3.375831 12.517905 4.397135
v -3.458971 12.428196 4.196650
v -3.375831 12.514153 4.004550
v -3.375831 12.516870 4.196650
v -9.922838 12.516870 4.196650
v -9.922838 12.517905 3.996165
v -9.839697 12.428196 4.196650
v -9.922838 12.517905 4.397135
vt 0.552568 0.038422
vt 0.381815 0.312500
vt 0.379198 0.317571
vt 0.375536 0.683606
vt 0.616670 0.312500
vt 0.622242 0.317537
vt 0.591664 0.312500
vt 0.434998 0.051328
vt 0.470699 0.040979
vt 0.508255 0.112396
vt 0.413167 0.317265
vt 0.584336 0.237805
vt 0.565002 0.267787
vt 0.500000 0.150000
vt 0.554686 0.312500
vt 0.552248 0.317265
vt 0.545166 0.683675
vt 0.627593 0.168368
vt 0.539941 0.165012
vt 0.523998 0.137424
vt 0.586104 0.317559
vt 0.569533 0.936743
vt 0.616670 0.688440
vt 0.591664 0.688440
vt 0.586092 0.683403
vt 0.379188 0.683381
vt 0.406085 0.683675
vt 0.403647 0.688440
vt 0.434998 0.955287
vt 0.508615 0.880547
vt 0.500000 0.828770
vt 0.551545 0.683991
vt 0.579135 0.683369
vt 0.576518 0.688440
vt 0.616419 0.855534
vt 0.523998 0.852635
vt 0.539941 0.826289
vt 0.406788 0.316949
vt 0.579145 0.317559
vt 0.622230 0.683381
vt 0.569533 0.060675
vt 0.616419 0.141883
vt 0.552568 0.959884
vt 0.470698 0.957079
vt 0.584336 0.760253
vt 0.627593 0.829938
vt 0.430731 0.705018
vt 0.500000 0.158731
vt 0.534668 0.293918
vt 0.564540 0.725095
vt 0.375000 0.317376
vt 0.377291 0.312500
vt 0.403647 0.312500
vt 0.545166 0.317265
vt 0.581042 0.312500
vt 0.576518 0.312500
vt 0.377291 0.688440
vt 0.381815 0.688440
vt 0.413167 0.683675
vt 0.554686 0.688440
vt 0.581042 0.688440
vt 0.500000 0.837500
vt 0.512412 0.859990
vn 1.000000 0.000001 0.000000
vn 1.000000 -0.000001 0.000000
vn 1.000000 -0.000001 0.000000
vn 1.000000 -0.000000 0.000000
vn 0.728894 0.593822 -0.340717
vn 0.775835 0.485719 -0.402687
vn 0.723693 0.544941 -0.423448
vn 0.784483 0.481261 -0.391120
vn -0.000002 0.999023 -0.044192
vn -0.000004 0.804123 -0.594463
vn 0.000001 0.999024 -0.044173
vn 0.000002 0.805479 -0.592625
vn 0.716833 0.697234 -0.003765
vn 0.717065 0.695397 -0.047325
vn 0.714804 0.699319 0.003041
vn 0.715582 0.697411 0.039503
vn 0.783709 -0.620860 -0.018238
vn 0.723244 -0.690593 -0.000413
vn 0.767312 -0.641135 -0.013388
vn 0.727301 -0.686315 0.001986
vn -0.001687 -0.433803 -0.901006
vn -0.001667 -0.432837 -0.901471
vn -0.000019 -0.350284 -0.936643
vn 0.000000 -0.349334 -0.936998
vn 0.781737 -0.623447 0.014161
vn 0.768604 -0.639645 0.010136
vn 0.736094 -0.676879 0.000812
vn 0.770005 0.488304 0.410673
vn 0.762795 0.491767 0.419892
vn 0.720747 0.546369 0.426620
vn 0.728972 0.594247 0.339810
vn 0.000000 -0.349334 0.936998
vn 0.000019 -0.350284 0.936644
vn 0.001667 -0.432836 0.901471
vn 0.001687 -0.433802 0.901007
vn 1.000000 -0.000000 0.000000
vn 1.000000 -0.000000 0.000000
vn 1.000000 -0.000001 0.000000
vn -0.000002 0.805481 0.592622
vn -0.000001 0.999024 0.044172
vn 0.000004 0.804124 0.594462
vn 0.000002 0.999023 0.044193
vn -1.000000 -0.000001 0.000000
vn -1.000000 -0.000001 0.000000
vn -1.000000 -0.000002 0.000000
vn -1.000000 0.000000 0.000000
vn -0.715579 0.697414 -0.039503
vn -0.714801 0.699321 -0.003041
vn -0.717067 0.695396 0.047327
vn -0.716836 0.697231 0.003765
vn -0.728972 0.594247 -0.339809
vn -0.720746 0.546368 -0.426623
vn -0.762790 0.491769 -0.419899
vn -0.769999 0.488307 -0.410680
vn -0.781727 -0.623460 -0.014165
vn -0.768595 -0.639655 -0.010137
vn -0.736089 -0.676885 -0.000810
vn -0.732334 -0.680946 0.000000
vn -0.781730 -0.623456 0.014165
vn -0.736086 -0.676888 0.000810
vn -0.768596 -0.639654 0.010137
vn -0.784485 0.481260 0.391116
vn -0.723688 0.544941 0.423456
vn -0.775836 0.485719 0.402685
vn -0.728889 0.593822 0.340728
vn -1.000000 0.000000 0.000000
vn -1.000000 0.000000 0.000000
vn -1.000000 0.000000 0.000000
vn -0.000000 0.755928 -0.654655
vn 0.000000 0.755928 -0.654655
vn -0.000000 0.755928 0.654654
vn 0.000000 0.755930 0.654653
vn 1.000000 0.000002 0.000000
vn 1.000000 0.000000 0.000000
vn -1.000000 0.000000 0.000000
vn -1.000000 0.000000 0.000000
vn 0.000000 -1.000000 -0.000001
vn 0.000000 -1.000000 0.000003
vn 0.000000 -1.000000 -0.000002
vn 0.000000 -1.000000 0.000002
vn 0.000000 -1.000000 0.000001
vn 0.000000 -1.000000 -0.000003
vn 0.863113 -0.256002 -0.435315
vn 0.863113 -0.256002 -0.435315
vn 0.863113 -0.256002 -0.435315
vn 0.849577 -0.184260 0.494234
vn 0.849577 -0.184260 0.494234
vn 0.849577 -0.184260 0.494234
vn -0.849568 -0.184272 -0.494244
vn -0.849568 -0.184272 -0.494244
vn -0.849568 -0.184272 -0.494244
vn -0.863113 -0.256025 0.435302
vn -0.863113 -0.256025 0.435302
vn -0.863112 -0.256025 0.435302
vn 0.729494 -0.683956 0.006526
vn -0.729502 -0.683979 0.000000
s 1
g RoofEdge MainBuilding
usemtl aiStandardSurface21SG
f 1/1/1 4/41/2 31/10/3
f 31/10/3 4/41/2 32/20/4
s 2
f 1/2/5 7/53/6 2/3/7
f 2/3/7 7/53/6 6/38/8
s 3
f 3/51/9 2/3/10 16/4/11
f 16/4/11 2/3/10 17/26/12
s 2
f 4/5/13 3/6/14 11/7/15
f 11/7/15 3/6/14 12/21/16
s 5
f 7/9/17 31/10/18 5/8/19
f 5/8/19 31/10/18 30/48/20
s 6
f 6/38/21 5/11/22 20/27/23
f 20/27/23 5/11/22 21/59/24
s 5
f 8/12/25 10/13/26 29/19/27
f 29/19/27 10/13/26 30/14/20
s 2
f 9/16/28 8/15/29 13/39/30
f 13/39/30 8/15/29 14/56/31
s 9
f 10/54/32 9/16/33 22/17/34
f 22/17/34 9/16/33 23/32/35
s 1
f 14/18/36 29/19/37 11/42/38
f 11/42/38 29/19/37 32/20/4
s 3
f 13/39/39 12/21/40 26/33/41
f 26/33/41 12/21/40 27/25/42
s 12
f 18/43/43 34/30/44 15/22/45
f 15/22/45 34/30/44 33/36/46
s 13
f 16/40/47 15/23/48 27/25/49
f 27/25/49 15/23/48 28/24/50
f 18/58/51 17/26/52 19/28/53
f 19/28/53 17/26/52 20/27/54
s 15
f 19/44/55 21/29/56 34/30/57
f 34/30/57 21/29/56 35/62/58
f 24/45/59 36/37/60 22/50/61
f 22/50/61 36/37/60 35/31/58
s 13
f 23/32/62 26/33/63 24/60/64
f 24/60/64 26/33/63 25/34/65
s 12
f 25/46/66 28/35/67 36/37/68
f 36/37/68 28/35/67 33/36/46
s 3
f 6/38/69 20/27/70 2/3/10
f 2/3/10 20/27/70 17/26/12
f 13/39/39 26/33/41 9/16/71
f 9/16/71 26/33/41 23/32/72
f 12/21/40 3/6/9 27/25/42
f 27/25/42 3/6/9 16/40/11
s 1
f 7/9/73 1/1/1 31/10/3
f 14/18/36 8/12/74 29/19/37
f 4/41/2 11/42/38 32/20/4
s 12
f 18/43/43 19/44/75 34/30/44
f 24/45/76 25/46/66 36/37/68
f 28/35/67 15/22/45 33/36/46
s 19
f 21/47/77 5/8/78 35/31/79
f 5/8/78 30/48/80 35/31/79
f 10/49/81 22/50/82 30/48/80
f 30/48/80 22/50/82 35/31/79
s 2
f 2/3/7 3/51/14 1/2/5
f 1/2/5 3/51/14 4/52/13
s off
f 5/11/83 6/38/84 7/53/85
f 8/15/86 9/16/87 10/54/88
s 2
f 11/55/15 12/21/16 14/56/31
f 14/56/31 12/21/16 13/39/30
s 13
f 15/57/48 16/4/47 18/58/51
f 18/58/51 16/4/47 17/26/52
s off
f 19/28/89 20/27/90 21/59/91
f 22/17/92 23/32/93 24/60/94
s 13
f 26/33/63 27/25/49 25/34/65
f 25/34/65 27/25/49 28/61/50
s 5
f 29/19/27 30/48/20 32/20/95
f 32/20/95 30/48/20 31/10/18
s 15
f 34/30/57 35/62/58 33/36/96
f 33/36/96 35/62/58 36/63/60
g default
v -3.375831 12.761047 3.716493
v -3.464134 12.817583 3.646277
v -3.463549 12.861208 3.762846
v -3.375831 12.771747 3.896581
v -3.458818 12.428196 3.364626
v -3.453303 12.530854 3.315190
v -3.375831 12.529873 3.469370
v -3.375831 12.529873 4.923930
v -3.458818 12.538162 5.069671
v -3.458818 12.428196 5.028674
v -3.375831 12.771747 4.496719
v -3.463940 12.861208 4.630158
v -3.463935 12.817682 4.746910
v -3.375831 12.761047 4.676807
v -9.922838 12.771747 3.896581
v -9.834728 12.861208 3.763142
v -9.834734 12.817682 3.646390
v -9.922838 12.761047 3.716493
v -9.922838 12.529873 3.469370
v -9.839849 12.538162 3.323629
v -9.839849 12.428196 3.364626
v -9.839849 12.428196 5.028674
v -9.845367 12.530854 5.078110
v -9.922838 12.529873 4.923930
v -9.922838 12.761047 4.676807
v -9.834534 12.817583 4.747023
v -9.835121 12.861208 4.630454
v -9.922838 12.771747 4.496719
v -3.375831 12.517905 4.397135
v -3.458971 12.428196 4.196650
v -3.375831 12.514153 4.004550
v -3.375831 12.516870 4.196650
v -9.922838 12.516870 4.196650
v -9.922838 12.517905 3.996165
v -9.839697 12.428196 4.196650
v -9.922838 12.517905 4.397135
vt 0.552568 0.038422
vt 0.381815 0.312500
vt 0.379198 0.317571
vt 0.375536 0.683606
vt 0.616670 0.312500
vt 0.622242 0.317537
vt 0.591664 0.312500
vt 0.434998 0.051328
vt 0.470699 0.040979
vt 0.508255 0.112396
vt 0.413167 0.317265
vt 0.584336 0.237805
vt 0.565002 0.267787
vt 0.500000 0.150000
vt 0.554686 0.312500
vt 0.552248 0.317265
vt 0.545166 0.683675
vt 0.627593 0.168368
vt 0.539941 0.165012
vt 0.523998 0.137424
vt 0.586104 0.317559
vt 0.569533 0.936743
vt 0.616670 0.688440
vt 0.591664 0.688440
vt 0.586092 0.683403
vt 0.379188 0.683381
vt 0.406085 0.683675
vt 0.403647 0.688440
vt 0.434998 0.955287
vt 0.508615 0.880547
vt 0.500000 0.828770
vt 0.551545 0.683991
vt 0.579135 0.683369
vt 0.576518 0.688440
vt 0.616419 0.855534
vt 0.523998 0.852635
vt 0.539941 0.826289
vt 0.406788 0.316949
vt 0.579145 0.317559
vt 0.622230 0.683381
vt 0.569533 0.060675
vt 0.616419 0.141883
vt 0.552568 0.959884
vt 0.470698 0.957079
vt 0.584336 0.760253
vt 0.627593 0.829938
vt 0.430731 0.705018
vt 0.500000 0.158731
vt 0.534668 0.293918
vt 0.564540 0.725095
vt 0.375000 0.317376
vt 0.377291 0.312500
vt 0.403647 0.312500
vt 0.545166 0.317265
vt 0.581042 0.312500
vt 0.576518 0.312500
vt 0.377291 0.688440
vt 0.381815 0.688440
vt 0.413167 0.683675
vt 0.554686 0.688440
vt 0.581042 0.688440
vt 0.500000 0.837500
vt 0.512412 0.859990
vn 1.000000 0.000001 0.000000
vn 1.000000 -0.000001 0.000000
vn 1.000000 -0.000001 0.000000
vn 1.000000 -0.000000 0.000000
vn 0.728894 0.593822 -0.340717
vn 0.775835 0.485719 -0.402687
vn 0.723693 0.544941 -0.423448
vn 0.784483 0.481261 -0.391120
vn -0.000002 0.999023 -0.044192
vn -0.000004 0.804123 -0.594463
vn 0.000001 0.999024 -0.044173
vn 0.000002 0.805479 -0.592625
vn 0.716833 0.697234 -0.003765
vn 0.717065 0.695397 -0.047325
vn 0.714804 0.699319 0.003041
vn 0.715582 0.697411 0.039503
vn 0.783709 -0.620860 -0.018238
vn 0.723244 -0.690593 -0.000413
vn 0.767312 -0.641135 -0.013388
vn 0.727301 -0.686315 0.001986
vn -0.001687 -0.433803 -0.901006
vn -0.001667 -0.432837 -0.901471
vn -0.000019 -0.350284 -0.936643
vn 0.000000 -0.349334 -0.936998
vn 0.781737 -0.623447 0.014161
vn 0.768604 -0.639645 0.010136
vn 0.736094 -0.676879 0.000812
vn 0.770005 0.488304 0.410673
vn 0.762795 0.491767 0.419892
vn 0.720747 0.546369 0.426620
vn 0.728972 0.594247 0.339810
vn 0.000000 -0.349334 0.936998
vn 0.000019 -0.350284 0.936644
vn 0.001667 -0.432836 0.901471
vn 0.001687 -0.433802 0.901007
vn 1.000000 -0.000000 0.000000
vn 1.000000 -0.000000 0.000000
vn 1.000000 -0.000001 0.000000
vn -0.000002 0.805481 0.592622
vn -0.000001 0.999024 0.044172
vn 0.000004 0.804124 0.594462
vn 0.000002 0.999023 0.044193
vn -1.000000 -0.000001 0.000000
vn -1.000000 -0.000001 0.000000
vn -1.000000 -0.000002 0.000000
vn -1.000000 0.000000 0.000000
vn -0.715579 0.697414 -0.039503
vn -0.714801 0.699321 -0.003041
vn -0.717067 0.695396 0.047327
vn -0.716836 0.697231 0.003765
vn -0.728972 0.594247 -0.339809
vn -0.720746 0.546368 -0.426623
vn -0.762790 0.491769 -0.419899
vn -0.769999 0.488307 -0.410680
vn -0.781727 -0.623460 -0.014165
vn -0.768595 -0.639655 -0.010137
vn -0.736089 -0.676885 -0.000810
vn -0.732334 -0.680946 0.000000
vn -0.781730 -0.623456 0.014165
vn -0.736086 -0.676888 0.000810
vn -0.768596 -0.639654 0.010137
vn -0.784485 0.481260 0.391116
vn -0.723688 0.544941 0.423456
vn -0.775836 0.485719 0.402685
vn -0.728889 0.593822 0.340728
vn -1.000000 0.000000 0.000000
vn -1.000000 0.000000 0.000000
vn -1.000000 0.000000 0.000000
vn -0.000000 0.755928 -0.654655
vn 0.000000 0.755928 -0.654655
vn -0.000000 0.755928 0.654654
vn 0.000000 0.755930 0.654653
vn 1.000000 0.000002 0.000000
vn 1.000000 0.000000 0.000000
vn -1.000000 0.000000 0.000000
vn -1.000000 0.000000 0.000000
vn 0.000000 -1.000000 -0.000001
vn 0.000000 -1.000000 0.000003
vn 0.000000 -1.000000 -0.000002
vn 0.000000 -1.000000 0.000002
vn 0.000000 -1.000000 0.000001
vn 0.000000 -1.000000 -0.000003
vn 0.863113 -0.256002 -0.435315
vn 0.863113 -0.256002 -0.435315
vn 0.863113 -0.256002 -0.435315
vn 0.849577 -0.184260 0.494234
vn 0.849577 -0.184260 0.494234
vn 0.849577 -0.184260 0.494234
vn -0.849568 -0.184272 -0.494244
vn -0.849568 -0.184272 -0.494244
vn -0.849568 -0.184272 -0.494244
vn -0.863113 -0.256025 0.435302
vn -0.863113 -0.256025 0.435302
vn -0.863112 -0.256025 0.435302
vn 0.729494 -0.683956 0.006526
vn -0.729502 -0.683979 0.000000
s 1
g RoofEdge MainBuilding
f 37/64/97 40/104/98 67/73/99
f 67/73/99 40/104/98 68/83/100
s 2
f 37/65/101 43/116/102 38/66/103
f 38/66/103 43/116/102 42/101/104
s 3
f 39/114/105 38/66/106 52/67/107
f 52/67/107 38/66/106 53/89/108
s 2
f 40/68/109 39/69/110 47/70/111
f 47/70/111 39/69/110 48/84/112
s 5
f 43/72/113 67/73/114 41/71/115
f 41/71/115 67/73/114 66/111/116
s 6
f 42/101/117 41/74/118 56/90/119
f 56/90/119 41/74/118 57/122/120
s 5
f 44/75/121 46/76/122 65/82/123
f 65/82/123 46/76/122 66/77/116
s 2
f 45/79/124 44/78/125 49/102/126
f 49/102/126 44/78/125 50/119/127
s 9
f 46/117/128 45/79/129 58/80/130
f 58/80/130 45/79/129 59/95/131
s 1
f 50/81/132 65/82/133 47/105/134
f 47/105/134 65/82/133 68/83/100
s 3
f 49/102/135 48/84/136 62/96/137
f 62/96/137 48/84/136 63/88/138
s 12
f 54/106/139 70/93/140 51/85/141
f 51/85/141 70/93/140 69/99/142
s 13
f 52/103/143 51/86/144 63/88/145
f 63/88/145 51/86/144 64/87/146
f 54/121/147 53/89/148 55/91/149
f 55/91/149 53/89/148 56/90/150
s 15
f 55/107/151 57/92/152 70/93/153
f 70/93/153 57/92/152 71/125/154
f 60/108/155 72/100/156 58/113/157
f 58/113/157 72/100/156 71/94/154
s 13
f 59/95/158 62/96/159 60/123/160
f 60/123/160 62/96/159 61/97/161
s 12
f 61/109/162 64/98/163 72/100/164
f 72/100/164 64/98/163 69/99/142
s 3
f 42/101/165 56/90/166 38/66/106
f 38/66/106 56/90/166 53/89/108
f 49/102/135 62/96/137 45/79/167
f 45/79/167 62/96/137 59/95/168
f 48/84/136 39/69/105 63/88/138
f 63/88/138 39/69/105 52/103/107
s 1
f 43/72/169 37/64/97 67/73/99
f 50/81/132 44/75/170 65/82/133
f 40/104/98 47/105/134 68/83/100
s 12
f 54/106/139 55/107/171 70/93/140
f 60/108/172 61/109/162 72/100/164
f 64/98/163 51/85/141 69/99/142
s 19
f 57/110/173 41/71/174 71/94/175
f 41/71/174 66/111/176 71/94/175
f 46/112/177 58/113/178 66/111/176
f 66/111/176 58/113/178 71/94/175
s 2
f 38/66/103 39/114/110 37/65/101
f 37/65/101 39/114/110 40/115/109
s off
f 41/74/179 42/101/180 43/116/181
f 44/78/182 45/79/183 46/117/184
s 2
f 47/118/111 48/84/112 50/119/127
f 50/119/127 48/84/112 49/102/126
s 13
f 51/120/144 52/67/143 54/121/147
f 54/121/147 52/67/143 53/89/148
s off
f 55/91/185 56/90/186 57/122/187
f 58/80/188 59/95/189 60/123/190
s 13
f 62/96/159 63/88/145 61/97/161
f 61/97/161 63/88/145 64/124/146
s 5
f 65/82/123 66/111/116 68/83/191
f 68/83/191 66/111/116 67/73/114
s 15
f 70/93/153 71/125/154 69/99/192
f 69/99/192 71/125/154 72/126/156
