# This file uses centimeters as units for non-parametric coordinates.

mtllib tallsection_uv.mtl
g default
v -9.656871 11.629430 3.710144
v -3.163389 11.629430 3.710144
v -9.656871 12.129430 3.710144
v -3.163389 12.129430 3.710144
v -9.656871 12.129430 -9.348796
v -3.163389 12.129430 -9.348796
v -9.656871 11.629430 -9.348796
v -3.163389 11.629430 -9.348796
vt 0.375000 0.000000
vt 0.625000 0.000000
vt 0.375000 0.250000
vt 0.625000 0.250000
vt 0.375000 0.500000
vt 0.625000 0.500000
vt 0.375000 0.750000
vt 0.625000 0.750000
vt 0.375000 1.000000
vt 0.625000 1.000000
vt 0.875000 0.000000
vt 0.875000 0.250000
vt 0.125000 0.000000
vt 0.125000 0.250000
vn 0.000000 0.000000 1.000000
vn 0.000000 0.000000 1.000000
vn 0.000000 0.000000 1.000000
vn 0.000000 0.000000 1.000000
vn 0.000000 1.000000 0.000000
vn 0.000000 1.000000 0.000000
vn 0.000000 1.000000 0.000000
vn 0.000000 1.000000 0.000000
vn 0.000000 0.000000 -1.000000
vn 0.000000 0.000000 -1.000000
vn 0.000000 0.000000 -1.000000
vn 0.000000 0.000000 -1.000000
vn 0.000000 -1.000000 0.000000
vn 0.000000 -1.000000 0.000000
vn 0.000000 -1.000000 0.000000
vn 0.000000 -1.000000 0.000000
vn 1.000000 0.000000 0.000000
vn 1.000000 0.000000 0.000000
vn 1.000000 0.000000 0.000000
vn 1.000000 0.000000 0.000000
vn -1.000000 0.000000 0.000000
vn -1.000000 0.000000 0.000000
vn -1.000000 0.000000 0.000000
vn -1.000000 0.000000 0.000000
s 1
g RoofFlooring TallBuilding MainBuilding
usemtl aiStandardSurface12SG
f 1/1/1 2/2/2 3/3/3
f 3/3/3 2/2/2 4/4/4
s 2
f 3/3/5 4/4/6 5/5/7
f 5/5/7 4/4/6 6/6/8
s 3
f 5/5/9 6/6/10 7/7/11
f 7/7/11 6/6/10 8/8/12
s 4
f 7/7/13 8/8/14 1/9/15
f 1/9/15 8/8/14 2/10/16
s 5
f 2/2/17 8/11/18 4/4/19
f 4/4/19 8/11/18 6/12/20
s 6
f 7/13/21 1/1/22 5/14/23
f 5/14/23 1/1/22 3/3/24
g default
v -9.915520 0.152137 4.134576
v -3.076052 0.152137 4.134576
v -9.915520 12.152138 4.134576
v -3.076052 12.152138 4.134576
v -9.915520 12.152138 -10.022029
v -3.076052 12.152138 -10.022029
v -9.915520 0.152137 -10.022029
v -3.076052 0.152137 -10.022029
v -3.076052 7.489033 -8.894657
v -3.076052 7.489033 3.007205
v -3.076052 11.331885 -8.894657
v -3.076052 11.331885 3.007205
v -9.915520 12.780742 4.134576
v -3.076052 12.780742 4.134576
v -3.076052 12.780742 -10.022029
v -9.915520 12.780742 -10.022029
v -9.292937 12.780742 3.426746
v -3.698637 12.780742 3.426746
v -3.698637 12.780742 -9.314199
v -9.292937 12.780742 -9.314199
vt 0.375000 0.000000
vt 0.625000 0.000000
vt 0.375000 0.250000
vt 0.625000 0.250000
vt 0.375000 0.500000
vt 0.625000 0.500000
vt 0.375000 0.750000
vt 0.625000 0.750000
vt 0.375000 1.000000
vt 0.625000 1.000000
vt 0.875000 0.000000
vt 0.875000 0.250000
vt 0.125000 0.000000
vt 0.125000 0.250000
vt 0.625000 0.000000
vt 0.875000 0.000000
vt 0.875000 0.250000
vt 0.625000 0.250000
vt 0.375000 0.250000
vt 0.625000 0.250000
vt 0.625000 0.500000
vt 0.375000 0.500000
vt 0.375000 0.250000
vt 0.625000 0.250000
vt 0.625000 0.500000
vt 0.375000 0.500000
vn 0.000000 0.000000 1.000000
vn 0.000000 0.000000 1.000000
vn 0.000000 0.000000 1.000000
vn 0.000000 0.000000 1.000000
vn 0.000000 0.000000 -1.000000
vn 0.000000 0.000000 -1.000000
vn 0.000000 0.000000 -1.000000
vn 0.000000 0.000000 -1.000000
vn 0.000000 -1.000000 0.000000
vn 0.000000 -1.000000 0.000000
vn 0.000000 -1.000000 0.000000
vn 0.000000 -1.000000 0.000000
vn -1.000000 0.000000 0.000000
vn -1.000000 0.000000 0.000000
vn -1.000000 0.000000 0.000000
vn -1.000000 0.000000 0.000000
vn 1.000000 -0.000000 0.000000
vn 1.000000 -0.000000 0.000000
vn 1.000000 -0.000000 0.000000
vn 1.000000 0.000000 0.000000
vn 1.000000 0.000000 0.000000
vn 1.000000 0.000000 0.000000
vn 1.000000 0.000000 0.000000
vn 1.000000 0.000000 0.000000
vn 0.000000 0.000000 1.000000
vn 0.000000 0.000000 1.000000
vn 1.000000 0.000000 0.000000
vn 1.000000 0.000000 0.000000
vn 0.000000 0.000000 -1.000000
vn 0.000000 0.000000 -1.000000
vn -1.000000 0.000000 0.000000
vn -1.000000 0.000000 0.000000
vn 0.000000 1.000000 0.000001
vn 0.000000 1.000000 0.000000
vn 0.000000 1.000000 0.000000
vn 0.000000 1.000000 0.000000
vn 0.000000 1.000000 -0.000000
vn 0.000000 1.000000 -0.000000
vn 0.000000 1.000000 -0.000000
vn 0.000000 1.000000 0.000000
s 1
g TallBuilding MainBuilding TallSection
usemtl aiStandardSurface12SG
f 9/15/25 10/16/26 11/17/27
f 11/17/27 10/16/26 12/18/28
s 2
f 13/19/29 14/20/30 15/21/31
f 15/21/31 14/20/30 16/22/32
s 3
f 15/21/33 16/22/34 9/23/35
f 9/23/35 16/22/34 10/24/36
s 4
f 15/27/37 9/15/38 13/28/39
f 13/28/39 9/15/38 11/17/40
s 5
f 10/16/41 16/25/42 18/29/43
f 18/29/43 16/25/42 17/30/44
f 16/25/42 14/26/45 17/30/44
f 17/30/44 14/26/45 19/31/46
f 14/26/45 12/18/47 19/31/46
f 19/31/46 12/18/47 20/32/48
f 10/16/41 18/29/43 12/18/47
f 12/18/47 18/29/43 20/32/48
s 1
f 11/17/27 12/18/28 21/33/49
f 21/33/49 12/18/28 22/34/50
s 5
f 12/18/47 14/20/45 22/34/51
f 22/34/51 14/20/45 23/35/52
s 2
f 14/20/30 13/19/29 23/35/53
f 23/35/53 13/19/29 24/36/54
s 4
f 13/19/39 11/17/40 24/36/55
f 24/36/55 11/17/40 21/33/56
s 6
f 21/33/57 22/34/58 25/37/59
f 25/37/59 22/34/58 26/38/60
f 22/34/58 23/35/61 26/38/60
f 26/38/60 23/35/61 27/39/62
f 23/35/61 24/36/63 27/39/62
f 27/39/62 24/36/63 28/40/64
f 24/36/63 21/33/57 28/40/64
f 28/40/64 21/33/57 25/37/59
g default
v -9.915520 0.152137 4.134576
v -3.076052 0.152137 4.134576
v -9.915520 12.152138 4.134576
v -3.076052 12.152138 4.134576
v -9.915520 12.152138 -10.022029
v -3.076052 12.152138 -10.022029
v -9.915520 0.152137 -10.022029
v -3.076052 0.152137 -10.022029
v -3.076052 7.489033 -8.894657
v -3.076052 7.489033 3.007205
v -3.076052 11.331885 -8.894657
v -3.076052 11.331885 3.007205
v -9.915520 12.780742 4.134576
v -3.076052 12.780742 4.134576
v -3.076052 12.780742 -10.022029
v -9.915520 12.780742 -10.022029
v -9.292937 12.780742 3.426746
v -3.698637 12.780742 3.426746
v -3.698637 12.780742 -9.314199
v -9.292937 12.780742 -9.314199
vt 0.375000 0.000000
vt 0.625000 0.000000
vt 0.375000 0.250000
vt 0.625000 0.250000
vt 0.375000 0.500000
vt 0.625000 0.500000
vt 0.375000 0.750000
vt 0.625000 0.750000
vt 0.375000 1.000000
vt 0.625000 1.000000
vt 0.875000 0.000000
vt 0.875000 0.250000
vt 0.125000 0.000000
vt 0.125000 0.250000
vt 0.625000 0.000000
vt 0.875000 0.000000
vt 0.875000 0.250000
vt 0.625000 0.250000
vt 0.375000 0.250000
vt 0.625000 0.250000
vt 0.625000 0.500000
vt 0.375000 0.500000
vt 0.375000 0.250000
vt 0.625000 0.250000
vt 0.625000 0.500000
vt 0.375000 0.500000
vn 0.000000 0.000000 1.000000
vn 0.000000 0.000000 1.000000
vn 0.000000 0.000000 1.000000
vn 0.000000 0.000000 1.000000
vn 0.000000 0.000000 -1.000000
vn 0.000000 0.000000 -1.000000
vn 0.000000 0.000000 -1.000000
vn 0.000000 0.000000 -1.000000
vn 0.000000 -1.000000 0.000000
vn 0.000000 -1.000000 0.000000
vn 0.000000 -1.000000 0.000000
vn 0.000000 -1.000000 0.000000
vn -1.000000 0.000000 0.000000
vn -1.000000 0.000000 0.000000
vn -1.000000 0.000000 0.000000
vn -1.000000 0.000000 0.000000
vn 1.000000 -0.000000 0.000000
vn 1.000000 -0.000000 0.000000
vn 1.000000 -0.000000 0.000000
vn 1.000000 0.000000 0.000000
vn 1.000000 0.000000 0.000000
vn 1.000000 0.000000 0.000000
vn 1.000000 0.000000 0.000000
vn 1.000000 0.000000 0.000000
vn 0.000000 0.000000 1.000000
vn 0.000000 0.000000 1.000000
vn 1.000000 0.000000 0.000000
vn 1.000000 0.000000 0.000000
vn 0.000000 0.000000 -1.000000
vn 0.000000 0.000000 -1.000000
vn -1.000000 0.000000 0.000000
vn -1.000000 0.000000 0.000000
vn 0.000000 1.000000 0.000001
vn 0.000000 1.000000 0.000000
vn 0.000000 1.000000 0.000000
vn 0.000000 1.000000 0.000000
vn 0.000000 1.000000 -0.000000
vn 0.000000 1.000000 -0.000000
vn 0.000000 1.000000 -0.000000
vn 0.000000 1.000000 0.000000
s 1
g TallBuilding MainBuilding TallSection1
usemtl aiStandardSurface12SG
f 29/41/65 30/42/66 31/43/67
f 31/43/67 30/42/66 32/44/68
s 2
f 33/45/69 34/46/70 35/47/71
f 35/47/71 34/46/70 36/48/72
s 3
f 35/47/73 36/48/74 29/49/75
f 29/49/75 36/48/74 30/50/76
s 4
f 35/53/77 29/41/78 33/54/79
f 33/54/79 29/41/78 31/43/80
s 5
f 30/42/81 36/51/82 38/55/83
f 38/55/83 36/51/82 37/56/84
f 36/51/82 34/52/85 37/56/84
f 37/56/84 34/52/85 39/57/86
f 34/52/85 32/44/87 39/57/86
f 39/57/86 32/44/87 40/58/88
f 30/42/81 38/55/83 32/44/87
f 32/44/87 38/55/83 40/58/88
s 1
f 31/43/67 32/44/68 41/59/89
f 41/59/89 32/44/68 42/60/90
s 5
f 32/44/87 34/46/85 42/60/91
f 42/60/91 34/46/85 43/61/92
s 2
f 34/46/70 33/45/69 43/61/93
f 43/61/93 33/45/69 44/62/94
s 4
f 33/45/79 31/43/80 44/62/95
f 44/62/95 31/43/80 41/59/96
s 6
f 41/59/97 42/60/98 45/63/99
f 45/63/99 42/60/98 46/64/100
f 42/60/98 43/61/101 46/64/100
f 46/64/100 43/61/101 47/65/102
f 43/61/101 44/62/103 47/65/102
f 47/65/102 44/62/103 48/66/104
f 44/62/103 41/59/97 48/66/104
f 48/66/104 41/59/97 45/63/99
